<svg width="124" height="159" viewBox="0 0 124 159" fill="none" xmlns="http://www.w3.org/2000/svg">
<path d="M8.66849 140.286H13.6718V159H8.66849V151.596H5.00329V159H0V140.286H5.00329V147.952H8.66849V140.286Z" fill="white"/>
<path d="M15.9932 140.286H21.0838V159H15.9932V140.286Z" fill="white"/>
<path d="M23.4075 140.286H32.0469C34.8976 140.286 36.3229 141.491 36.3229 143.9V149.264C36.3229 151.674 34.8976 152.879 32.0469 152.879H28.498V159H23.4075V140.286ZM31.2324 148.593V144.571C31.2324 144.143 30.99 143.929 30.5051 143.929H28.498V149.235H30.5051C30.99 149.235 31.2324 149.021 31.2324 148.593Z" fill="white"/>
<path d="M50.5737 147.282H45.4832V144.279C45.4832 143.852 45.2408 143.638 44.756 143.638H43.7379C43.2531 143.638 43.0106 143.852 43.0106 144.279V155.006C43.0106 155.434 43.2531 155.648 43.7379 155.648H44.756C45.2408 155.648 45.4832 155.434 45.4832 155.006V152.121H50.5737V155.385C50.5737 157.795 49.1484 159 46.2977 159H42.1962C39.3454 159 37.9201 157.795 37.9201 155.385V143.9C37.9201 141.491 39.3454 140.286 42.1962 140.286H46.2977C49.1484 140.286 50.5737 141.491 50.5737 143.9V147.282Z" fill="white"/>
<path d="M61.1364 140.286H66.1397V159H61.1364V151.596H57.4712V159H52.4679V140.286H57.4712V147.952H61.1364V140.286Z" fill="white"/>
<path d="M77.9732 159L77.3914 156.202H72.9117L72.3009 159H67.2976L72.0973 140.286H78.2932L83.0929 159H77.9732ZM73.6971 152.587H76.606L75.1807 145.853L73.6971 152.587Z" fill="white"/>
<path d="M89.3461 152.354V159H84.2555V140.286H92.8949C95.7456 140.286 97.171 141.491 97.171 143.9V148.739C97.171 150.585 96.3371 151.722 94.6693 152.15L98.1018 159H92.6331L89.666 152.354H89.3461ZM91.3532 143.929H89.3461V148.885H91.3532C91.838 148.885 92.0804 148.671 92.0804 148.244V144.571C92.0804 144.143 91.838 143.929 91.3532 143.929Z" fill="white"/>
<path d="M110.455 140.286V143.929H106.848V159H101.757V143.929H98.1795V140.286H110.455Z" fill="white"/>
<path d="M118.909 154.715V152.062C118.909 151.635 118.667 151.421 118.182 151.421H115.39C113.955 151.421 112.937 151.11 112.335 150.488C111.754 149.847 111.463 148.934 111.463 147.748V143.9C111.463 141.491 112.878 140.286 115.71 140.286H119.695C122.526 140.286 123.942 141.491 123.942 143.9V146.145H118.851V144.571C118.851 144.143 118.609 143.929 118.124 143.929H117.28C116.796 143.929 116.553 144.143 116.553 144.571V147.34C116.553 147.768 116.796 147.981 117.28 147.981H120.015C121.45 147.981 122.468 148.283 123.069 148.885C123.69 149.487 124 150.372 124 151.538V155.385C124 157.795 122.584 159 119.753 159H115.797C112.946 159 111.521 157.795 111.521 155.385V153.141H116.611V154.715C116.611 155.142 116.854 155.356 117.339 155.356H118.182C118.667 155.356 118.909 155.142 118.909 154.715Z" fill="white"/>
<rect x="2.35764" width="37.4429" height="37.5216" fill="#0066FF"/>
<rect x="2.35764" y="40.2017" width="37.4429" height="37.5216" fill="#0066FF"/>
<rect x="2.35764" y="80.4033" width="37.4429" height="37.5216" fill="#0066FF"/>
<rect x="42.4751" y="40.2017" width="37.4429" height="37.5216" fill="#0066FF"/>
<rect x="82.5925" width="37.4429" height="37.5216" fill="#0066FF"/>
<rect x="82.5925" y="40.2017" width="37.4429" height="37.5216" fill="#0066FF"/>
<rect x="82.5925" y="80.4033" width="37.4429" height="37.5216" fill="#0066FF"/>
</svg>
